<?xml version="1.0" standalone="no"?>
<!DOCTYPE svg PUBLIC "-//W3C//DTD SVG 20010904//EN"
 "http://www.w3.org/TR/2001/REC-SVG-20010904/DTD/svg10.dtd">
<svg version="1.0" xmlns="http://www.w3.org/2000/svg"
 width="511.000000pt" height="511.000000pt" viewBox="0 0 511.000000 511.000000"
 preserveAspectRatio="xMidYMid meet">
<metadata>
Created by potrace 1.11, written by Peter Selinger 2001-2013
</metadata>
<g transform="translate(0.000000,511.000000) scale(0.100000,-0.100000)"
fill="#000000" stroke="none">
<path d="M2139 5083 c-6 -16 -21 -55 -34 -88 -30 -79 -290 -778 -308 -830 -8
-22 -80 -218 -162 -435 -81 -217 -218 -586 -305 -820 -87 -234 -222 -596 -300
-805 -145 -389 -178 -477 -248 -671 l-40 -111 56 1 57 2 137 364 c75 201 137
366 137 367 1 2 3 8 6 15 5 16 83 225 133 361 l37 97 905 -2 c896 -3 905 -3
908 -23 2 -11 10 -33 17 -50 8 -16 44 -114 82 -218 76 -208 62 -191 171 -213
32 -7 32 -6 21 22 -22 58 -221 590 -233 624 -7 19 -30 80 -50 135 -21 55 -87
233 -148 395 -162 434 -179 480 -189 486 -7 4 -84 -13 -97 -22 -2 -1 50 -143
114 -315 64 -173 149 -402 189 -509 l73 -195 -856 -3 c-470 -1 -857 -1 -858 1
-2 2 39 118 92 258 52 140 103 277 113 304 17 47 66 180 168 450 25 66 60 161
78 210 18 50 57 155 87 235 30 80 113 301 184 492 113 305 144 377 144 338 0
-5 42 -124 94 -262 52 -139 138 -370 191 -513 53 -143 99 -263 101 -267 4 -6
90 15 100 25 2 2 -28 89 -67 193 -39 104 -84 223 -99 264 -42 116 -129 349
-155 415 -12 33 -45 120 -71 192 l-49 133 -58 0 c-54 0 -58 -2 -68 -27z"/>
<path d="M2997 3894 c-1 -1 -37 -4 -79 -8 -94 -8 -255 -48 -348 -86 -332 -137
-542 -384 -616 -725 -14 -63 -19 -194 -13 -307 l2 -48 59 0 c55 0 59 1 53 20
-4 12 -6 71 -6 133 1 382 200 675 561 824 290 120 688 116 986 -10 172 -72
338 -208 438 -356 49 -73 122 -223 146 -298 7 -24 17 -43 21 -43 28 0 99 26
99 36 0 49 -118 292 -188 387 -195 266 -503 436 -853 473 -59 6 -257 12 -262
8z"/>
<path d="M2040 2449 c0 -16 90 -128 136 -168 180 -160 381 -237 979 -376 290
-67 386 -93 530 -147 172 -64 285 -131 378 -225 102 -104 149 -193 183 -348 3
-16 8 -84 9 -150 6 -185 -29 -335 -111 -482 -41 -75 -163 -203 -235 -248 -148
-94 -345 -160 -547 -182 -103 -12 -439 -8 -512 5 -36 7 -78 15 -95 18 -150 27
-345 110 -475 202 -133 94 -276 264 -354 419 -22 44 -66 150 -89 215 -6 16 -9
16 -54 1 -26 -9 -50 -17 -51 -19 -2 -1 6 -31 18 -66 123 -347 354 -611 660
-755 219 -102 440 -143 755 -138 201 3 290 14 445 53 374 95 632 330 720 654
30 114 32 124 35 273 6 223 -35 383 -134 529 -70 103 -234 230 -386 298 -129
58 -435 152 -564 174 -80 14 -472 112 -565 141 -227 72 -407 171 -500 274 -46
51 -46 51 -111 53 -36 1 -65 -1 -65 -5z"/>
<path d="M3390 1781 c0 -15 164 -447 172 -452 14 -9 113 -3 111 7 -3 16 -143
389 -151 403 -8 14 -132 54 -132 42z"/>
</g>
</svg>
